<svg width="120" height="30" viewBox="0 0 120 30" fill="none" xmlns="http://www.w3.org/2000/svg">
<path d="M29.0996 6.38825V21.9618C29.0994 22.0569 29.1303 22.1495 29.1877 22.2258C29.2452 22.3021 29.326 22.358 29.4182 22.3853C30.2951 22.6191 31.5279 23.2588 32.5865 24.95C33.8981 27.05 38.3185 28.875 40.775 29.3191C40.9056 29.3427 41.0398 29.3376 41.1681 29.304C41.2964 29.2705 41.4157 29.2094 41.5173 29.1252C41.619 29.0409 41.7006 28.9355 41.7563 28.8165C41.812 28.6975 41.8404 28.5679 41.8396 28.4368V1.18677C41.8396 1.03597 41.8008 0.887636 41.727 0.75565C41.6531 0.623663 41.5466 0.512345 41.4173 0.432117C41.2881 0.351889 41.1403 0.305375 40.9879 0.296931C40.8354 0.288486 40.6833 0.318387 40.5458 0.383834L29.6103 5.58825C29.4576 5.66069 29.3287 5.77417 29.2384 5.91567C29.1481 6.05718 29.1 6.22096 29.0996 6.38825Z" fill="#FFFF33"/>
<path d="M26.4408 2.58677L21.3668 4.28971C21.1786 4.35291 20.9745 4.35291 20.7862 4.28971L15.7137 2.58677C15.6459 2.56306 15.5732 2.55591 15.5019 2.56592C15.4307 2.57592 15.3629 2.6028 15.3044 2.64425C15.2459 2.6857 15.1985 2.74049 15.166 2.80397C15.1336 2.86745 15.1172 2.93773 15.1182 3.00883V22.0059C15.1206 22.1025 15.1539 22.1959 15.2133 22.2728C15.2726 22.3496 15.355 22.406 15.4487 22.4338C16.5311 22.7956 17.7847 23.8632 18.5455 24.9691C18.8217 25.3846 19.1969 25.7267 19.6382 25.9654C20.0795 26.2041 20.5734 26.3321 21.0765 26.3382V26.3382C21.5796 26.3321 22.0735 26.2041 22.5149 25.9654C22.9562 25.7267 23.3314 25.3846 23.6075 24.9691C24.3683 23.8632 25.6219 22.7971 26.7043 22.4338C26.798 22.406 26.8804 22.3496 26.9398 22.2728C26.9991 22.1959 27.0324 22.1025 27.0348 22.0059V3.00883C27.0357 2.93791 27.0193 2.86782 26.987 2.8045C26.9546 2.74117 26.9073 2.68649 26.849 2.64507C26.7907 2.60366 26.7232 2.57673 26.6521 2.56658C26.5811 2.55643 26.5086 2.56336 26.4408 2.58677V2.58677Z" fill="#FFFF33"/>
<path d="M0.311542 28.4412C0.310691 28.5723 0.33913 28.7019 0.394831 28.8209C0.450532 28.9399 0.532123 29.0453 0.633788 29.1296C0.735452 29.2138 0.854687 29.2749 0.98299 29.3084C1.11129 29.342 1.24551 29.3471 1.37606 29.3235V29.3235C3.83412 28.8824 8.25447 27.0544 9.56464 24.9559C10.6232 23.2632 11.856 22.6235 12.7329 22.3897C12.8251 22.3625 12.9059 22.3065 12.9634 22.2302C13.0208 22.1539 13.0517 22.0613 13.0515 21.9662V6.38824C13.0513 6.22112 13.0034 6.05744 12.9133 5.91595C12.8233 5.77447 12.6947 5.6609 12.5423 5.58824L1.60534 0.383834C1.46779 0.318387 1.31568 0.288486 1.16325 0.296931C1.01082 0.305375 0.863049 0.351889 0.733776 0.432117C0.604503 0.512345 0.497956 0.623663 0.424109 0.75565C0.350262 0.887636 0.311531 1.03597 0.311542 1.18677V28.4412Z" fill="#FFFF33"/>
<path d="M70.345 11.0941V24.3956C70.3454 24.4883 70.3828 24.5771 70.4492 24.6427C70.5155 24.7082 70.6054 24.7452 70.6993 24.7456H73.5058C73.5997 24.7456 73.6899 24.7087 73.7563 24.6431C73.8228 24.5774 73.8601 24.4884 73.8601 24.3956V5.22794C73.8603 5.18186 73.8513 5.13619 73.8336 5.09355C73.8158 5.05092 73.7898 5.01216 73.7568 4.97951C73.7239 4.94685 73.6848 4.92094 73.6417 4.90326C73.5986 4.88557 73.5524 4.87647 73.5058 4.87647H70.5281C70.4639 4.87647 70.4009 4.89371 70.3458 4.92635C70.2907 4.95899 70.2457 5.00579 70.2154 5.06177L63.7375 16.9118C63.7221 16.9394 63.6994 16.9623 63.6719 16.9784C63.6444 16.9944 63.6131 17.0028 63.5812 17.0028C63.5493 17.0028 63.5179 16.9944 63.4905 16.9784C63.463 16.9623 63.4403 16.9394 63.4249 16.9118L56.9261 5.05883C56.8954 5.00334 56.8502 4.957 56.7952 4.92466C56.7402 4.89233 56.6775 4.87518 56.6134 4.875H53.6566C53.6097 4.87481 53.5632 4.88381 53.5199 4.9015C53.4765 4.91918 53.4371 4.9452 53.404 4.97803C53.3709 5.01086 53.3448 5.04986 53.327 5.09276C53.3093 5.13566 53.3004 5.18161 53.3008 5.22794V24.3956C53.3008 24.4884 53.3381 24.5774 53.4046 24.6431C53.471 24.7087 53.5612 24.7456 53.6551 24.7456H56.4273C56.5213 24.7456 56.6115 24.7087 56.6779 24.6431C56.7444 24.5774 56.7817 24.4884 56.7817 24.3956V11.0956L63.276 22.9118C63.3063 22.9674 63.3513 23.0138 63.4063 23.0462C63.4612 23.0786 63.5239 23.0957 63.5879 23.0957C63.6518 23.0957 63.7146 23.0786 63.7695 23.0462C63.8244 23.0138 63.8695 22.9674 63.8998 22.9118L70.345 11.0941Z" fill="#D9DAD9"/>
<path d="M84.7302 12.5265V10.0265C84.7298 10.0018 84.7245 9.97748 84.7145 9.95487C84.7046 9.93226 84.6902 9.91182 84.6722 9.89473C84.6542 9.87764 84.6329 9.86424 84.6097 9.8553C84.5864 9.84636 84.5616 9.84206 84.5366 9.84264C83.4364 9.85383 82.3623 10.1754 81.441 10.7694C80.5196 11.3635 79.7893 12.2052 79.3361 13.1956L79.2647 13.3426V10.1882C79.2647 10.095 79.2272 10.0056 79.1605 9.9397C79.0937 9.87379 79.0032 9.83676 78.9088 9.83676H76.1947C76.1003 9.83676 76.0098 9.87379 75.9431 9.9397C75.8764 10.0056 75.8389 10.095 75.8389 10.1882V24.3956C75.8393 24.4885 75.8769 24.5776 75.9436 24.6432C76.0103 24.7088 76.1006 24.7456 76.1947 24.7456H78.9088C79.0027 24.7452 79.0926 24.7082 79.159 24.6426C79.2253 24.5771 79.2628 24.4883 79.2632 24.3956V17.5632C79.2632 16.1044 79.7798 14.9162 80.7997 14.025C81.7614 13.1868 83.0255 12.7397 84.559 12.6941C84.6041 12.6941 84.6474 12.6765 84.6795 12.6451C84.7116 12.6137 84.7298 12.5711 84.7302 12.5265V12.5265Z" fill="#D9DAD9"/>
<path d="M89.7804 9.83676H87.0633C86.8676 9.83676 86.709 9.99346 86.709 10.1868V24.3956C86.709 24.5889 86.8676 24.7456 87.0633 24.7456H89.7804C89.9761 24.7456 90.1348 24.5889 90.1348 24.3956V10.1868C90.1348 9.99346 89.9761 9.83676 89.7804 9.83676Z" fill="#D9DAD9"/>
<path d="M117.959 11.1971C116.81 10.0618 115.224 9.48679 113.25 9.48679C111.843 9.51221 110.45 9.7748 109.132 10.2633C109.084 10.2804 109.04 10.3073 109.004 10.3422C108.967 10.3771 108.938 10.4192 108.919 10.4658C108.9 10.5124 108.891 10.5624 108.893 10.6127C108.895 10.6629 108.907 10.7122 108.929 10.7574L109.78 12.4603C109.818 12.5349 109.882 12.5933 109.961 12.6249C110.039 12.6565 110.127 12.6591 110.207 12.6324C110.961 12.3797 111.751 12.2438 112.547 12.2294C113.849 12.2294 114.819 12.5677 115.434 13.2353C116.049 13.903 116.359 14.75 116.359 15.7603V16.2633L116.241 16.2206C114.887 15.7221 113.455 15.4584 112.01 15.4412C110.944 15.4294 109.888 15.6456 108.915 16.075C108.036 16.4583 107.274 17.0628 106.707 17.828C106.168 18.5685 105.883 19.4602 105.895 20.3721C105.88 21.2503 106.132 22.1127 106.62 22.8471C107.114 23.5718 107.801 24.1467 108.606 24.5074C109.508 24.9114 110.489 25.1123 111.478 25.0956C112.382 25.0919 113.275 24.9005 114.099 24.5338C114.909 24.1915 115.627 23.6655 116.193 22.9985L116.351 22.8103V24.3941C116.351 24.4874 116.389 24.5768 116.455 24.6427C116.522 24.7086 116.613 24.7456 116.707 24.7456H119.333C119.428 24.7456 119.518 24.7086 119.585 24.6427C119.652 24.5768 119.689 24.4874 119.689 24.3941V15.7603C119.689 13.8691 119.107 12.3338 117.959 11.1971ZM116.351 20.1059C116.168 20.9059 115.672 21.5324 114.876 21.9912C114.086 22.4445 113.188 22.6802 112.275 22.6735C111.393 22.6735 110.649 22.4515 110.065 22.0147C109.783 21.8145 109.553 21.5491 109.398 21.2416C109.242 20.9341 109.165 20.5937 109.172 20.25C109.172 19.5235 109.501 18.9162 110.153 18.4427C110.805 17.9691 111.599 17.7412 112.535 17.7412C113.807 17.7361 115.071 17.9241 116.284 18.2985L116.347 18.3177L116.351 20.1059Z" fill="#D9DAD9"/>
<path d="M106.848 9.83676H104.09C104.018 9.83701 103.947 9.85909 103.887 9.90008C103.828 9.94106 103.782 9.999 103.757 10.0662L98.0575 25.3676L96.6163 29.2338C96.5967 29.2869 96.5903 29.3438 96.5977 29.3998C96.6051 29.4558 96.626 29.5092 96.6588 29.5555C96.6915 29.6019 96.735 29.6397 96.7857 29.6659C96.8363 29.692 96.8926 29.7058 96.9498 29.7059H99.1563C99.2273 29.7055 99.2966 29.6842 99.3552 29.6446C99.4138 29.605 99.4592 29.549 99.4853 29.4838L107.178 10.3176C107.199 10.2644 107.207 10.2067 107.201 10.1498C107.195 10.0928 107.174 10.0382 107.142 9.99082C107.109 9.9434 107.065 9.90458 107.014 9.87773C106.963 9.85087 106.906 9.83681 106.848 9.83676V9.83676Z" fill="#D9DAD9"/>
<path d="M99.6913 20.5573C99.6201 20.5573 99.5505 20.5361 99.4915 20.4965C99.4326 20.4569 99.3871 20.4007 99.3608 20.3353L95.1534 10.0603C95.1275 9.99445 95.0822 9.93786 95.0232 9.89797C94.9642 9.85807 94.8943 9.83674 94.8229 9.83676H91.9822C91.9236 9.83678 91.866 9.85112 91.8145 9.87849C91.7629 9.90587 91.719 9.94542 91.6868 9.99364C91.6545 10.0418 91.6348 10.0972 91.6294 10.1548C91.6241 10.2123 91.6332 10.2703 91.6561 10.3235L96.2179 21.0441C96.245 21.1075 96.2903 21.1616 96.3483 21.1998C96.4063 21.238 96.4743 21.2585 96.5439 21.2588H100.823V20.5573H99.6913Z" fill="#D9DAD9"/>
<path d="M89.9434 4.11764L88.6035 4.88676C88.5494 4.91775 88.488 4.93408 88.4255 4.93408C88.3631 4.93408 88.3017 4.91775 88.2476 4.88676L86.9077 4.11617C86.854 4.08328 86.7924 4.06509 86.7293 4.06347C86.6662 4.06185 86.6037 4.07686 86.5484 4.10695C86.4931 4.13704 86.4469 4.18114 86.4145 4.2347C86.3822 4.28827 86.3648 4.34938 86.3643 4.41176V6.55882C86.3645 6.62039 86.3809 6.68084 86.412 6.73422C86.4431 6.7876 86.4877 6.83206 86.5414 6.86323L88.2432 7.83529C88.2972 7.86628 88.3586 7.88261 88.4211 7.88261C88.4836 7.88261 88.545 7.86628 88.599 7.83529L90.2992 6.86323C90.3531 6.83218 90.3978 6.78774 90.4289 6.73433C90.46 6.68093 90.4763 6.62042 90.4764 6.55882V4.41176C90.4746 4.35105 90.4568 4.29185 90.4249 4.23993C90.393 4.18801 90.348 4.14515 90.2943 4.11552C90.2406 4.0859 90.1801 4.07052 90.1186 4.07089C90.0571 4.07127 89.9967 4.08737 89.9434 4.11764V4.11764Z" fill="#FFFF33"/>
</svg>
